<?xml version="1.0" encoding="utf-8"?>
<!-- Generator: Adobe Illustrator 27.3.1, SVG Export Plug-In . SVG Version: 6.00 Build 0)  -->
<svg version="1.1" id="Слой_1" xmlns="http://www.w3.org/2000/svg" x="0px" y="0px"
     viewBox="0 0 384 384" style="enable-background:new 0 0 384 384;" xml:space="preserve">
<style type="text/css">
	.st0{fill:#6C6F7D;}
</style>
    <g>
	<g>
		<path class="st0" d="M0,191.6c4.9-11.2,13.6-19.6,21.5-28.5c25-28,53.1-52.3,86.2-70.5c20-11,41.2-18.8,63.9-22
			c28.3-3.9,55.6,0.7,81.8,11.5c6.2,2.5,12.3,5.4,18.3,8.5c3.2,1.7,5.1,1.5,7.7-1.1c27.8-28,55.7-55.8,83.6-83.7
			c3.3-3.3,6.7-5.5,11.6-4.3c7.4,1.8,10.7,10.3,6.2,16.5c-0.9,1.3-2.1,2.4-3.3,3.6C258.8,140.3,140.3,258.9,21.6,377.4
			c-2.7,2.7-6.4,4.4-9.7,6.6c-0.5,0-1,0-1.5,0C5,382.5,1.5,379,0,373.5c0-0.5,0-1,0-1.5c1.3-4.9,5-8.2,8.4-11.6
			c25.4-25.4,50.8-50.7,76.1-76.1c1.2-1.2,2.2-2.5,3.5-3.9c-1.3-1-2.1-1.7-3-2.3c-22.2-15.2-42.2-33-60.2-52.9
			c-9-10-19-19.5-24.7-32C0,192.6,0,192.1,0,191.6z M239.2,129.7c-29.4-23.7-79.1-23.2-108.6,12.4c-27.6,33.3-19.7,78.2-1.3,97.6
			c4.5-4.5,8.8-9.1,13.4-13.5c2.1-2,2.3-3.4,0.8-6c-10.6-19.3-10.5-38.7,1.1-57.4c10.6-17,26.6-25.5,46.5-26.1
			c10.1-0.3,19.7,2.4,28.5,7.6c1.1,0.7,3.3,1.2,3.9,0.7C228.9,140.1,233.9,135,239.2,129.7z"/>
        <path class="st0" d="M129.1,301.7c2.1-1.5,3.9-2.4,5.3-3.8c9.4-9.3,18.8-18.6,28-28.1c2.1-2.1,3.9-2.6,6.9-1.8
			c46,12.9,91.4-15,100.2-61.9c2.3-12.1,1.7-24.3-2-36.2c-0.9-2.9-0.5-4.8,1.7-6.9c14.2-14,28.3-28.2,42.4-42.3
			c0.8-0.8,1.6-1.5,2.9-2.6c5.9,5,11.9,9.9,17.6,15c17.3,15.5,33.1,32.4,47.3,50.9c4.5,5.9,4.9,10.1,0.6,15.6
			c-30.7,39.4-66.4,72.9-111.2,96c-19.8,10.2-40.7,16.9-62.8,19.1c-25.6,2.5-50.3-2-74.2-11.5C131.2,303.1,130.8,302.8,129.1,301.7z
			"/>
        <path class="st0" d="M185.8,247.7c20.5-20.6,40.7-40.7,61.1-61.1c1.6,16.5-3,30.9-14.1,43.1C220.3,243.4,204.5,249.2,185.8,247.7z
			"/>
	</g>
</g>
</svg>
